#!OML:ASF H:\IndianDance\Patient Classification 1\Patient 1\Session 1\dancer.ASF
:FULLY-SPECIFIED
:DEGREES
3094
root -6.2575 15.2189 11.0183 -4.68442 61.198 -369.911
lowerback 2.29667 6.40004 5.4197
upperback -7.23521 9.10314 -0.0421282
thorax -8.07565 4.17807 -3.81478
lowerneck -18.277 1.46005 1.86229
upperneck 30.0737 2.38954 -1.02622
head 13.1747 1.32727 -0.277681
rclavicle -2.01766e-014 1.03368e-014
rhumerus 27.4538 52.1243 -9.87473
rradius 95.9592
rwrist -41.9129
rhand -20.4413 -28.1115
rfingers 7.12502
rthumb 5.91377 -58.0089
lclavicle -2.01766e-014 1.03368e-014
lhumerus 25.0402 -49.9315 1.44178
lradius 111.708
lwrist 62.8723
lhand -1.08583 -309.725
lfingers 7.12502
lthumb 24.5499 1158.72
rfemur -26.3093 -16.5914 26.9962
rtibia 42.5037
rfoot -15.3864 -5.66513
rtoes 4.30179
lfemur -16.1328 -0.556918 -8.08977
ltibia 55.2909
lfoot -11.5736 5.29094
ltoes -9.5692
3095
root -6.30397 15.2021 11.0924 -6.46281 63.6472 -371.613
lowerback 2.31518 6.6656 5.66913
upperback -7.18743 9.48199 -0.00318151
thorax -7.96889 4.35756 -3.92686
lowerneck -18.3732 1.44642 1.97929
upperneck 29.9059 2.33982 -1.03738
head 13.126 1.32131 -0.308928
rclavicle -4.71617e-014 -1.59028e-014
rhumerus 27.423 51.8142 -9.5651
rradius 96.3779
rwrist -41.177
rhand -20.5322 -27.5266
rfingers 7.12502
rthumb 5.82605 -57.4265
lclavicle -4.71617e-014 -1.59028e-014
lhumerus 24.7466 -49.7183 1.56712
lradius 111.852
lwrist 63.0454
lhand -0.969432 -309.714
lfingers 7.12502
lthumb 24.6615 1158.72
rfemur -25.9928 -17.5526 27.6486
rtibia 42.5113
rfoot -15.8866 -7.09644
rtoes 3.60731
lfemur -16.7137 1.14504 -7.65464
ltibia 56.4212
lfoot -12.2341 8.12953
ltoes -7.01698
3096
root -6.34481 15.1883 11.1655 -8.10202 66.0688 -373.103
lowerback 2.57659 6.94389 5.63742
upperback -7.21784 9.87494 -0.0626109
thorax -8.11111 4.5446 -4.03494
lowerneck -18.6488 1.40302 2.21976
upperneck 29.8359 2.19456 -1.03175
head 13.1558 1.28828 -0.369042
rclavicle 8.5378e-014 3.33958e-014
rhumerus 26.9192 51.5364 -9.70542
rradius 96.8008
rwrist -40.4659
rhand -20.8708 -26.7923
rfingers 7.12502
rthumb 5.49913 -56.701
lclavicle 8.5378e-014 3.33958e-014
lhumerus 24.812 -49.529 1.47628
lradius 111.9
lwrist 63.4545
lhand -0.891568 -309.407
lfingers 7.12502
lthumb 24.7361 1159.01
rfemur -25.7264 -18.6526 28.04
rtibia 42.6046
rfoot -16.3292 -8.2467
rtoes 3.09697
lfemur -17.2208 2.79275 -7.53121
ltibia 57.4328
lfoot -12.7853 10.4807
ltoes -4.79284
3097
root -6.38443 15.1719 11.2372 -10.2417 68.5236 -375.09
lowerback 2.72907 7.07426 5.69371
upperback -7.36172 10.0889 -0.00916539
thorax -8.33959 4.63841 -4.05945
lowerneck -18.0996 1.3884 2.03781
upperneck 29.5662 2.18667 -0.783654
head 12.9216 1.31064 -0.246146
rclavicle 4.40308e-014 2.42517e-014
rhumerus 27.0904 51.7859 -9.37564
rradius 97.3058
rwrist -39.4817
rhand -21.5464 -26.6019
rfingers 7.12502
rthumb 4.84681 -56.5265
lclavicle 4.40308e-014 2.42517e-014
lhumerus 24.1107 -49.7146 1.80524
lradius 111.989
lwrist 63.678
lhand -0.56576 -309.216
lfingers 7.12502
lthumb 25.0484 1159.16
rfemur -25.5147 -19.5463 28.4643
rtibia 42.797
rfoot -16.7765 -9.44438
rtoes 3.09159
lfemur -17.6936 4.33336 -7.3768
ltibia 58.3544
lfoot -13.4664 12.2508
ltoes -4.21699
3098
root -6.42132 15.1582 11.3054 -12.5825 70.8719 -377.249
lowerback 2.79908 7.28496 5.74364
upperback -7.307 10.3741 -0.0792389
thorax -8.27088 4.77778 -4.18013
lowerneck -18.16 1.36057 2.12001
upperneck 29.3655 2.07634 -0.645192
head 12.8492 1.29255 -0.224327
rclavicle 5.70512e-014 3.77691e-014
rhumerus 26.9231 51.4388 -9.4359
rradius 97.6068
rwrist -38.3634
rhand -21.7299 -26.1095
rfingers 7.12502
rthumb 4.66957 -56.038
lclavicle 5.70512e-014 3.77691e-014
lhumerus 23.9124 -49.4676 1.81051
lradius 111.942
lwrist 63.859
lhand -0.00831394 -309.016
lfingers 7.12502
lthumb 25.5824 1159.29
rfemur -25.3627 -20.3018 28.7765
rtibia 43.0732
rfoot -17.1946 -10.6137
rtoes 3.32522
lfemur -18.1678 5.83785 -7.35106
ltibia 59.1928
lfoot -14.0381 13.1941
ltoes -0.350098
3099
root -6.45589 15.1407 11.3737 -15.4207 73.2839 -379.837
lowerback 2.9355 7.4002 5.67009
upperback -7.23997 10.5253 -0.147884
thorax -8.26035 4.85571 -4.23618
lowerneck -18.1504 1.37491 2.27525
upperneck 29.1451 2.03117 -0.585649
head 12.7575 1.30054 -0.235651
rclavicle 1.46604e-014 6.36111e-015
rhumerus 27.0086 51.0414 -9.52482
rradius 97.7326
rwrist -36.9372
rhand -21.3553 -25.2565
rfingers 7.12502
rthumb 5.03133 -55.1768
lclavicle 1.46604e-014 6.36111e-015
lhumerus 23.5125 -49.1858 1.89122
lradius 111.97
lwrist 64.2323
lhand 0.248083 -308.608
lfingers 7.12502
lthumb 25.828 1159.66
rfemur -25.2199 -20.9914 28.9718
rtibia 43.4539
rfoot -17.6184 -11.9382
rtoes 3.74732
lfemur -18.5867 7.2971 -7.39711
ltibia 59.9628
lfoot -14.4445 13.9072
ltoes -0.189432
3100
root -6.48805 15.1284 11.4412 -19.1765 75.7232 -383.318
lowerback 3.12994 7.47816 5.53262
upperback -7.16503 10.6257 -0.201082
thorax -8.29376 4.91054 -4.24899
lowerneck -18.5039 1.27879 2.3763
upperneck 29.1748 1.86374 -0.610274
head 12.8423 1.23641 -0.285856
rclavicle -3.15571e-014 -3.26007e-014
rhumerus 26.935 50.6941 -9.704
rradius 97.8964
rwrist -35.6137
rhand -21.4134 -24.4424
rfingers 7.12502
rthumb 4.97519 -54.364
lclavicle -3.15571e-014 -3.26007e-014
lhumerus 23.1941 -48.8985 1.99569
lradius 111.754
lwrist 64.004
lhand 1.1876 -308.55
lfingers 7.12502
lthumb 26.7274 1159.58
rfemur -25.0999 -21.7475 29.1226
rtibia 43.8946
rfoot -18.0115 -13.2706
rtoes 4.33417
lfemur -18.9264 8.51708 -7.51726
ltibia 60.6508
lfoot -14.5717 14.485
ltoes -0.110255
3101
root -6.51799 15.1113 11.5068 -24.2939 78.0956 -388.181
lowerback 3.25061 7.52944 5.36182
upperback -7.05425 10.6798 -0.240242
thorax -8.25787 4.94921 -4.21207
lowerneck -18.6518 1.24556 2.35638
upperneck 28.9998 1.76161 -0.436111
head 12.7978 1.2126 -0.231287
rclavicle -4.84041e-014 -5.96354e-015
rhumerus 26.8547 50.2379 -9.95077
rradius 97.9727
rwrist -34.2843
rhand -21.2033 -23.364
rfingers 7.12502
rthumb 5.17805 -53.2807
lclavicle -4.84041e-014 -5.96354e-015
lhumerus 22.7632 -48.6022 2.11721
lradius 111.909
lwrist 64.68
lhand -0.174463 -308.533
lfingers 7.12502
lthumb 25.4233 1159.79
rfemur -25.0537 -22.4792 29.2441
rtibia 44.4088
rfoot -18.463 -14.4679
rtoes 5.04085
lfemur -19.2548 9.57703 -7.67664
ltibia 61.2814
lfoot -14.5987 14.926
ltoes 1.77811
3102
root -6.54632 15.09 11.5691 -31.7071 80.1254 -395.415
lowerback 3.26117 7.62888 5.26983
upperback -6.94949 10.8041 -0.207794
thorax -8.1592 5.02408 -4.13019
lowerneck -18.7978 1.14953 2.42018
upperneck 28.8718 1.62992 -0.53405
head 12.7752 1.14858 -0.300495
rclavicle 5.99336e-014 2.22639e-014
rhumerus 26.9613 49.9346 -9.975
rradius 98.1121
rwrist -33.0575
rhand -21.4872 -22.4364
rfingers 7.12502
rthumb 4.90394 -52.3597
lclavicle 5.99336e-014 2.22639e-014
lhumerus 22.2876 -48.3024 2.41684
lradius 111.807
lwrist 64.6921
lhand 0.444052 -308.104
lfingers 7.12502
lthumb 26.0156 1160.13
rfemur -25.1073 -22.9803 29.4987
rtibia 44.9147
rfoot -18.9099 -15.6572
rtoes 5.69355
lfemur -19.5954 10.7791 -7.7473
ltibia 61.8783
lfoot -14.4928 15.2767
ltoes 2.14159
3103
root -6.57032 15.0687 11.6274 -42.883 82.12 -406.43
lowerback 3.29918 7.66675 5.12202
upperback -6.9636 10.8498 -0.238119
thorax -8.21228 5.05398 -4.09588
lowerneck -18.6522 1.04652 2.30354
upperneck 28.6753 1.43504 -0.228787
head 12.658 1.09522 -0.195919
rclavicle 1.91827e-014 1.23246e-014
rhumerus 26.8529 49.8318 -10.2382
rradius 98.2255
rwrist -32.1554
rhand -21.7786 -21.384
rfingers 7.12502
rthumb 4.62259 -51.3136
lclavicle 1.91827e-014 1.23246e-014
lhumerus 21.9414 -48.2231 2.5651
lradius 111.79
lwrist 64.7725
lhand -1.90619 -309.944
lfingers 7.12502
lthumb 23.7634 1158.61
rfemur -25.1395 -23.7054 29.5813
rtibia 45.3977
rfoot -19.7088 -16.5043
rtoes 7.70882
lfemur -19.9192 11.7343 -7.97345
ltibia 62.4171
lfoot -15.6381 15.4425
ltoes -0.183486
3104
root -6.58724 15.0461 11.6822 -60.4445 83.4813 -423.733
lowerback 3.30668 7.69569 5.09738
upperback -6.92 10.8915 -0.192179
thorax -8.1786 5.08114 -4.03587
lowerneck -18.5019 0.993047 2.38992
upperneck 28.505 1.35397 -0.258631
head 12.5576 1.06913 -0.235858
rclavicle -3.78685e-014 -8.34896e-015
rhumerus 26.7937 49.9017 -10.3789
rradius 98.5402
rwrist -31.062
rhand -22.5011 -20.7682
rfingers 7.12502
rthumb 3.92486 -50.7118
lclavicle -3.78685e-014 -8.34896e-015
lhumerus 21.5399 -48.1435 2.83755
lradius 111.695
lwrist 64.7552
lhand -0.93587 -309.049
lfingers 7.12502
lthumb 24.6937 1159.38
rfemur -24.9914 -24.3726 29.7532
rtibia 45.7894
rfoot -20.0077 -17.7305
rtoes 6.20899
lfemur -20.0337 12.5682 -7.99324
ltibia 62.9069
lfoot -16.0236 15.426
ltoes 0.538441
3105
root -6.60749 15.0288 11.7357 -84.7957 83.9863 -448.051
lowerback 3.16581 7.57682 5.00453
upperback -6.8227 10.722 -0.077533
thorax -8.04402 5.01749 -3.82732
lowerneck -18.5522 1.10158 2.038
upperneck 28.1669 1.46268 0.230801
head 12.4265 1.13999 0.0261166
rclavicle -1.2424e-013 -2.94201e-014
rhumerus 27.0568 49.4832 -10.486
rradius 98.4608
rwrist -29.9389
rhand -22.1028 -18.608
rfingers 7.12502
rthumb 4.30951 -48.5442
lclavicle -1.2424e-013 -2.94201e-014
lhumerus 20.7502 -47.8227 3.36009
lradius 111.576
lwrist 64.7325
lhand -1.01522 -309.023
lfingers 7.12502
lthumb 24.6176 1159.41
rfemur -25.0715 -25.0202 30.0515
rtibia 46.1196
rfoot -20.6659 -18.582
rtoes 7.54053
lfemur -20.4867 13.2505 -8.0399
ltibia 63.3384
lfoot -16.169 15.6032
ltoes 1.40165
3106
root -6.62297 15.0131 11.7854 -108.394 83.2937 -471.633
lowerback 3.13676 7.56817 5.11065
upperback -6.98945 10.7348 -0.129738
thorax -8.18105 5.01194 -3.94958
lowerneck -18.1828 0.980127 2.13439
upperneck 27.9326 1.22905 0.401592
head 12.2547 1.07563 0.0341336
rclavicle 2.38542e-015 -5.96354e-015
rhumerus 26.6645 49.6311 -11.0512
rradius 98.6786
rwrist -29.1071
rhand -22.7461 -17.6986
rfingers 7.12502
rthumb 3.68832 -47.6465
lclavicle 2.38542e-015 -5.96354e-015
lhumerus 20.5619 -47.9568 3.30757
lradius 111.652
lwrist 64.7123
lhand -1.04658 -308.704
lfingers 7.12502
lthumb 24.5876 1159.74
rfemur -25.1448 -25.7557 30.4158
rtibia 46.3768
rfoot -21.1321 -19.5159
rtoes 7.56316
lfemur -20.8876 13.7244 -8.05831
ltibia 63.6786
lfoot -16.0685 15.9534
ltoes 1.58272
3107
root -6.63373 14.9931 11.8317 -125.973 81.7824 -489.189
lowerback 2.76982 7.49676 4.98747
upperback -6.93085 10.6135 -0.0671466
thorax -7.94763 4.97903 -3.75017
lowerneck -18.1063 0.92268 2.12477
upperneck 27.7319 1.10922 0.558099
head 12.1575 1.04326 0.0745247
rclavicle 9.52179e-014 2.34566e-014
rhumerus 26.5982 49.5793 -11.2473
rradius 98.931
rwrist -28.2015
rhand -23.3964 -16.6011
rfingers 7.12502
rthumb 3.06025 -46.5588
lclavicle 9.52179e-014 2.34566e-014
lhumerus 20.3508 -47.829 3.63298
lradius 111.413
lwrist 64.6831
lhand -0.813593 -307.864
lfingers 7.12502
lthumb 24.8109 1160.55
rfemur -25.1993 -26.6299 30.6735
rtibia 46.6095
rfoot -21.7371 -20.2906
rtoes 8.03189
lfemur -21.1783 14.0266 -8.14005
ltibia 63.8943
lfoot -16.063 16.203
ltoes 2.05799
